<svg width="315" height="56" viewBox="0 0 315 56" fill="none" xmlns="http://www.w3.org/2000/svg">
<path d="M62.2676 34.2886C62.2676 33.8062 62.1934 33.3732 62.0449 32.9897C61.9089 32.5939 61.6491 32.2352 61.2656 31.9136C60.8822 31.5796 60.3441 31.2518 59.6514 30.9302C58.9587 30.6086 58.0618 30.2746 56.9609 29.9282C55.7363 29.5324 54.5736 29.0871 53.4727 28.5923C52.3841 28.0975 51.4193 27.5223 50.5781 26.8667C49.7493 26.1987 49.0938 25.4256 48.6113 24.5474C48.1413 23.6691 47.9062 22.6486 47.9062 21.4858C47.9062 20.3602 48.1536 19.3397 48.6484 18.4243C49.1432 17.4966 49.8359 16.7049 50.7266 16.0493C51.6172 15.3813 52.6686 14.868 53.8809 14.5093C55.1055 14.1506 56.4476 13.9712 57.9072 13.9712C59.8988 13.9712 61.6367 14.3299 63.1211 15.0474C64.6055 15.7648 65.7559 16.7482 66.5723 17.9976C67.401 19.2469 67.8154 20.6756 67.8154 22.2837H62.2861C62.2861 21.492 62.1191 20.7993 61.7852 20.2056C61.4635 19.5994 60.9688 19.1232 60.3008 18.7769C59.6452 18.4305 58.8164 18.2573 57.8145 18.2573C56.8496 18.2573 56.0456 18.4058 55.4023 18.7026C54.7591 18.9871 54.2767 19.3768 53.9551 19.8716C53.6335 20.354 53.4727 20.8983 53.4727 21.5044C53.4727 21.9621 53.584 22.3765 53.8066 22.7476C54.0417 23.1187 54.388 23.465 54.8457 23.7866C55.3034 24.1082 55.8662 24.4113 56.5342 24.6958C57.2021 24.9803 57.9753 25.2586 58.8535 25.5308C60.3255 25.9761 61.6182 26.4771 62.7314 27.0337C63.8571 27.5903 64.7972 28.215 65.5518 28.9077C66.3063 29.6004 66.8753 30.3859 67.2588 31.2642C67.6423 32.1424 67.834 33.1382 67.834 34.2515C67.834 35.4266 67.6051 36.478 67.1475 37.4058C66.6898 38.3335 66.028 39.119 65.1621 39.7622C64.2962 40.4054 63.2633 40.894 62.0635 41.228C60.8636 41.562 59.5215 41.729 58.0371 41.729C56.7012 41.729 55.3838 41.5558 54.085 41.2095C52.7861 40.8507 51.6048 40.3127 50.541 39.5952C49.4896 38.8778 48.6484 37.9624 48.0176 36.8491C47.3867 35.7358 47.0713 34.4185 47.0713 32.897H52.6562C52.6562 33.7381 52.7861 34.4494 53.0459 35.0308C53.3057 35.6121 53.6706 36.0822 54.1406 36.4409C54.623 36.7996 55.1921 37.0594 55.8477 37.2202C56.5156 37.381 57.2454 37.4614 58.0371 37.4614C59.002 37.4614 59.7936 37.3254 60.4121 37.0532C61.043 36.7811 61.5068 36.4038 61.8037 35.9214C62.113 35.439 62.2676 34.8947 62.2676 34.2886ZM76.6289 25.438V41.3579H71.2666V21.2817H76.2949L76.6289 25.438ZM75.8867 30.6147H74.4023C74.4023 29.217 74.5693 27.9305 74.9033 26.7554C75.2497 25.5679 75.7507 24.5412 76.4062 23.6753C77.0742 22.797 77.8968 22.1167 78.874 21.6343C79.8512 21.1519 80.9831 20.9106 82.2695 20.9106C83.1602 20.9106 83.9766 21.0467 84.7188 21.3188C85.4609 21.5786 86.098 21.993 86.6299 22.562C87.1742 23.1187 87.5947 23.8485 87.8916 24.7515C88.1885 25.6421 88.3369 26.7121 88.3369 27.9614V41.3579H82.9932V28.5552C82.9932 27.6398 82.8695 26.9347 82.6221 26.4399C82.3747 25.9451 82.0221 25.5988 81.5645 25.4009C81.1191 25.203 80.5811 25.104 79.9502 25.104C79.2575 25.104 78.6514 25.2463 78.1318 25.5308C77.6247 25.8153 77.2041 26.2111 76.8701 26.7183C76.5361 27.2131 76.2887 27.7944 76.1279 28.4624C75.9671 29.1304 75.8867 29.8478 75.8867 30.6147ZM87.8359 30.0024L85.9248 30.2437C85.9248 28.9325 86.0856 27.714 86.4072 26.5884C86.7412 25.4627 87.2298 24.4731 87.873 23.6196C88.5286 22.7661 89.3389 22.1043 90.3037 21.6343C91.2686 21.1519 92.3818 20.9106 93.6436 20.9106C94.6084 20.9106 95.4867 21.0529 96.2783 21.3374C97.07 21.6095 97.7441 22.0487 98.3008 22.6548C98.8698 23.2485 99.3027 24.0278 99.5996 24.9927C99.9089 25.9575 100.063 27.1388 100.063 28.5366V41.3579H94.7012V28.5366C94.7012 27.6089 94.5775 26.9038 94.3301 26.4214C94.0951 25.9266 93.7487 25.5864 93.291 25.4009C92.8457 25.203 92.3138 25.104 91.6953 25.104C91.0521 25.104 90.4893 25.2339 90.0068 25.4937C89.5244 25.741 89.1224 26.0874 88.8008 26.5327C88.4792 26.978 88.238 27.4976 88.0771 28.0913C87.9163 28.6727 87.8359 29.3097 87.8359 30.0024ZM115.037 36.8306V27.8872C115.037 27.244 114.932 26.6935 114.722 26.2358C114.511 25.7658 114.184 25.4009 113.738 25.1411C113.305 24.8813 112.743 24.7515 112.05 24.7515C111.456 24.7515 110.943 24.8566 110.51 25.0669C110.077 25.2648 109.743 25.5555 109.508 25.939C109.273 26.3101 109.155 26.7492 109.155 27.2563H103.812C103.812 26.4028 104.009 25.5926 104.405 24.8257C104.801 24.0588 105.376 23.3846 106.131 22.8032C106.885 22.2095 107.782 21.7456 108.821 21.4116C109.873 21.0776 111.048 20.9106 112.347 20.9106C113.905 20.9106 115.291 21.1704 116.503 21.6899C117.715 22.2095 118.668 22.9888 119.36 24.0278C120.065 25.0669 120.418 26.3657 120.418 27.9243V36.5151C120.418 37.616 120.486 38.519 120.622 39.2241C120.758 39.9168 120.956 40.5229 121.216 41.0425V41.3579H115.816C115.557 40.8136 115.359 40.1333 115.223 39.3169C115.099 38.4881 115.037 37.6593 115.037 36.8306ZM115.742 29.1304L115.779 32.1548H112.792C112.087 32.1548 111.475 32.2352 110.955 32.396C110.436 32.5568 110.009 32.7856 109.675 33.0825C109.341 33.367 109.093 33.701 108.933 34.0845C108.784 34.4679 108.71 34.8885 108.71 35.3462C108.71 35.8039 108.815 36.2183 109.025 36.5894C109.236 36.9481 109.539 37.2326 109.935 37.4429C110.33 37.6408 110.794 37.7397 111.326 37.7397C112.13 37.7397 112.829 37.5789 113.423 37.2573C114.017 36.9357 114.474 36.5399 114.796 36.0698C115.13 35.5998 115.303 35.1545 115.315 34.7339L116.726 36.9976C116.528 37.5047 116.256 38.0304 115.909 38.5747C115.575 39.119 115.148 39.6323 114.629 40.1147C114.109 40.5848 113.485 40.9744 112.755 41.2837C112.025 41.5806 111.159 41.729 110.157 41.729C108.883 41.729 107.727 41.4754 106.688 40.9683C105.661 40.4487 104.844 39.7375 104.238 38.8345C103.645 37.9191 103.348 36.88 103.348 35.7173C103.348 34.6659 103.546 33.7319 103.941 32.9155C104.337 32.0991 104.919 31.4126 105.686 30.856C106.465 30.2869 107.436 29.8602 108.599 29.5757C109.761 29.2788 111.11 29.1304 112.644 29.1304H115.742ZM129.881 25.6606V41.3579H124.537V21.2817H129.565L129.881 25.6606ZM135.93 21.1519L135.837 26.106C135.577 26.0688 135.262 26.0379 134.891 26.0132C134.532 25.9761 134.204 25.9575 133.907 25.9575C133.153 25.9575 132.497 26.0565 131.94 26.2544C131.396 26.4399 130.938 26.7183 130.567 27.0894C130.209 27.4604 129.937 27.9119 129.751 28.4438C129.578 28.9757 129.479 29.5819 129.454 30.2622L128.378 29.9282C128.378 28.6294 128.508 27.4357 128.768 26.3472C129.027 25.2463 129.405 24.2876 129.899 23.4712C130.407 22.6548 131.025 22.0239 131.755 21.5786C132.485 21.1333 133.32 20.9106 134.26 20.9106C134.557 20.9106 134.86 20.9354 135.169 20.9849C135.478 21.022 135.732 21.0776 135.93 21.1519ZM149.215 21.2817V25.0669H137.525V21.2817H149.215ZM140.42 16.3276H145.764V35.3091C145.764 35.8905 145.838 36.3358 145.986 36.645C146.147 36.9543 146.382 37.1707 146.691 37.2944C147.001 37.4058 147.39 37.4614 147.86 37.4614C148.194 37.4614 148.491 37.4491 148.751 37.4243C149.023 37.3872 149.252 37.3501 149.438 37.313L149.456 41.2466C148.998 41.395 148.504 41.5125 147.972 41.5991C147.44 41.6857 146.852 41.729 146.209 41.729C145.034 41.729 144.007 41.5373 143.129 41.1538C142.263 40.758 141.595 40.1271 141.125 39.2612C140.655 38.3953 140.42 37.2573 140.42 35.8472V16.3276ZM160.886 41.3579H155.004L155.041 37.0161H160.886C162.345 37.0161 163.576 36.6883 164.578 36.0327C165.58 35.3647 166.335 34.3937 166.842 33.1196C167.361 31.8455 167.621 30.3055 167.621 28.4995V27.1821C167.621 25.7967 167.473 24.5783 167.176 23.5269C166.891 22.4754 166.465 21.591 165.896 20.8735C165.326 20.1561 164.628 19.618 163.799 19.2593C162.97 18.8882 162.018 18.7026 160.941 18.7026H154.893V14.3423H160.941C162.747 14.3423 164.399 14.6515 165.896 15.27C167.405 15.8761 168.71 16.7482 169.811 17.8862C170.911 19.0243 171.759 20.3849 172.353 21.9683C172.959 23.5392 173.262 25.2896 173.262 27.2192V28.4995C173.262 30.4168 172.959 32.1672 172.353 33.7505C171.759 35.3338 170.911 36.6945 169.811 37.8325C168.722 38.9582 167.417 39.8302 165.896 40.4487C164.386 41.0549 162.716 41.3579 160.886 41.3579ZM158.158 14.3423V41.3579H152.592V14.3423H158.158ZM182.613 21.2817V41.3579H177.251V21.2817H182.613ZM176.917 16.0493C176.917 15.27 177.189 14.6268 177.733 14.1196C178.278 13.6125 179.007 13.3589 179.923 13.3589C180.826 13.3589 181.549 13.6125 182.094 14.1196C182.65 14.6268 182.929 15.27 182.929 16.0493C182.929 16.8286 182.65 17.4718 182.094 17.979C181.549 18.4862 180.826 18.7397 179.923 18.7397C179.007 18.7397 178.278 18.4862 177.733 17.979C177.189 17.4718 176.917 16.8286 176.917 16.0493ZM196.27 41.729C194.711 41.729 193.313 41.4816 192.076 40.9868C190.839 40.4797 189.788 39.7808 188.922 38.8901C188.068 37.9995 187.413 36.9666 186.955 35.7915C186.497 34.604 186.269 33.3423 186.269 32.0063V31.2642C186.269 29.7427 186.485 28.3511 186.918 27.0894C187.351 25.8276 187.969 24.7329 188.773 23.8052C189.59 22.8774 190.579 22.1662 191.742 21.6714C192.905 21.1642 194.216 20.9106 195.676 20.9106C197.098 20.9106 198.36 21.1457 199.461 21.6157C200.562 22.0858 201.483 22.7537 202.226 23.6196C202.98 24.4855 203.549 25.5246 203.933 26.7368C204.316 27.9367 204.508 29.2726 204.508 30.7446V32.9712H188.551V29.4087H199.257V29.0005C199.257 28.2583 199.121 27.5965 198.849 27.0151C198.589 26.4214 198.193 25.9513 197.661 25.605C197.129 25.2586 196.449 25.0854 195.62 25.0854C194.915 25.0854 194.309 25.2401 193.802 25.5493C193.295 25.8586 192.88 26.2915 192.559 26.8481C192.249 27.4048 192.014 28.0604 191.854 28.8149C191.705 29.5571 191.631 30.3735 191.631 31.2642V32.0063C191.631 32.8104 191.742 33.5526 191.965 34.2329C192.2 34.9132 192.528 35.5008 192.948 35.9956C193.381 36.4904 193.901 36.8739 194.507 37.146C195.125 37.4181 195.824 37.5542 196.604 37.5542C197.568 37.5542 198.465 37.3687 199.294 36.9976C200.135 36.6141 200.859 36.0389 201.465 35.272L204.062 38.0923C203.642 38.6984 203.067 39.2798 202.337 39.8364C201.619 40.3931 200.754 40.8507 199.739 41.2095C198.725 41.5558 197.568 41.729 196.27 41.729ZM217.385 21.2817V25.0669H205.695V21.2817H217.385ZM208.59 16.3276H213.934V35.3091C213.934 35.8905 214.008 36.3358 214.156 36.645C214.317 36.9543 214.552 37.1707 214.861 37.2944C215.171 37.4058 215.56 37.4614 216.03 37.4614C216.364 37.4614 216.661 37.4491 216.921 37.4243C217.193 37.3872 217.422 37.3501 217.607 37.313L217.626 41.2466C217.168 41.395 216.674 41.5125 216.142 41.5991C215.61 41.6857 215.022 41.729 214.379 41.729C213.204 41.729 212.177 41.5373 211.299 41.1538C210.433 40.758 209.765 40.1271 209.295 39.2612C208.825 38.3953 208.59 37.2573 208.59 35.8472V16.3276ZM232.841 14.3423V41.3579H227.293V14.3423H232.841ZM241.153 14.3423V18.7026H219.11V14.3423H241.153ZM248.037 25.6606V41.3579H242.693V21.2817H247.722L248.037 25.6606ZM254.086 21.1519L253.993 26.106C253.733 26.0688 253.418 26.0379 253.047 26.0132C252.688 25.9761 252.36 25.9575 252.063 25.9575C251.309 25.9575 250.653 26.0565 250.097 26.2544C249.552 26.4399 249.095 26.7183 248.724 27.0894C248.365 27.4604 248.093 27.9119 247.907 28.4438C247.734 28.9757 247.635 29.5819 247.61 30.2622L246.534 29.9282C246.534 28.6294 246.664 27.4357 246.924 26.3472C247.184 25.2463 247.561 24.2876 248.056 23.4712C248.563 22.6548 249.181 22.0239 249.911 21.5786C250.641 21.1333 251.476 20.9106 252.416 20.9106C252.713 20.9106 253.016 20.9354 253.325 20.9849C253.634 21.022 253.888 21.0776 254.086 21.1519ZM266.814 36.8306V27.8872C266.814 27.244 266.709 26.6935 266.499 26.2358C266.289 25.7658 265.961 25.4009 265.516 25.1411C265.083 24.8813 264.52 24.7515 263.827 24.7515C263.233 24.7515 262.72 24.8566 262.287 25.0669C261.854 25.2648 261.52 25.5555 261.285 25.939C261.05 26.3101 260.933 26.7492 260.933 27.2563H255.589C255.589 26.4028 255.787 25.5926 256.183 24.8257C256.578 24.0588 257.154 23.3846 257.908 22.8032C258.663 22.2095 259.56 21.7456 260.599 21.4116C261.65 21.0776 262.825 20.9106 264.124 20.9106C265.683 20.9106 267.068 21.1704 268.28 21.6899C269.493 22.2095 270.445 22.9888 271.138 24.0278C271.843 25.0669 272.195 26.3657 272.195 27.9243V36.5151C272.195 37.616 272.263 38.519 272.399 39.2241C272.535 39.9168 272.733 40.5229 272.993 41.0425V41.3579H267.594C267.334 40.8136 267.136 40.1333 267 39.3169C266.876 38.4881 266.814 37.6593 266.814 36.8306ZM267.52 29.1304L267.557 32.1548H264.569C263.864 32.1548 263.252 32.2352 262.732 32.396C262.213 32.5568 261.786 32.7856 261.452 33.0825C261.118 33.367 260.871 33.701 260.71 34.0845C260.562 34.4679 260.487 34.8885 260.487 35.3462C260.487 35.8039 260.592 36.2183 260.803 36.5894C261.013 36.9481 261.316 37.2326 261.712 37.4429C262.108 37.6408 262.572 37.7397 263.104 37.7397C263.908 37.7397 264.606 37.5789 265.2 37.2573C265.794 36.9357 266.252 36.5399 266.573 36.0698C266.907 35.5998 267.08 35.1545 267.093 34.7339L268.503 36.9976C268.305 37.5047 268.033 38.0304 267.687 38.5747C267.353 39.119 266.926 39.6323 266.406 40.1147C265.887 40.5848 265.262 40.9744 264.532 41.2837C263.802 41.5806 262.937 41.729 261.935 41.729C260.66 41.729 259.504 41.4754 258.465 40.9683C257.438 40.4487 256.622 39.7375 256.016 38.8345C255.422 37.9191 255.125 36.88 255.125 35.7173C255.125 34.6659 255.323 33.7319 255.719 32.9155C256.115 32.0991 256.696 31.4126 257.463 30.856C258.242 30.2869 259.213 29.8602 260.376 29.5757C261.539 29.2788 262.887 29.1304 264.421 29.1304H267.52ZM284.608 37.5542C285.264 37.5542 285.845 37.4305 286.353 37.1831C286.86 36.9233 287.256 36.5646 287.54 36.1069C287.837 35.6369 287.992 35.0864 288.004 34.4556H293.032C293.02 35.8657 292.643 37.1213 291.9 38.2222C291.158 39.3107 290.162 40.1704 288.913 40.8013C287.664 41.4198 286.266 41.729 284.72 41.729C283.161 41.729 281.8 41.4692 280.638 40.9497C279.487 40.4302 278.529 39.7127 277.762 38.7974C276.995 37.8696 276.42 36.7935 276.036 35.5688C275.653 34.3319 275.461 33.0083 275.461 31.5981V31.0601C275.461 29.6375 275.653 28.314 276.036 27.0894C276.42 25.8524 276.995 24.7762 277.762 23.8608C278.529 22.9331 279.487 22.2095 280.638 21.6899C281.788 21.1704 283.136 20.9106 284.683 20.9106C286.328 20.9106 287.769 21.2261 289.006 21.8569C290.255 22.4878 291.232 23.3908 291.938 24.5659C292.655 25.7287 293.02 27.1079 293.032 28.7036H288.004C287.992 28.0356 287.849 27.4295 287.577 26.8853C287.317 26.341 286.934 25.908 286.427 25.5864C285.932 25.2524 285.32 25.0854 284.59 25.0854C283.811 25.0854 283.174 25.2524 282.679 25.5864C282.184 25.908 281.8 26.3534 281.528 26.9224C281.256 27.479 281.064 28.116 280.953 28.8335C280.854 29.5386 280.805 30.2808 280.805 31.0601V31.5981C280.805 32.3774 280.854 33.1258 280.953 33.8433C281.052 34.5607 281.238 35.1978 281.51 35.7544C281.794 36.311 282.184 36.7502 282.679 37.0718C283.174 37.3934 283.817 37.5542 284.608 37.5542ZM301.475 12.8394V41.3579H296.131V12.8394H301.475ZM314.129 21.2817L305.408 31.2271L300.732 35.9585L298.784 32.0991L302.495 27.3862L307.709 21.2817H314.129ZM308.581 41.3579L302.644 32.0806L306.336 28.8521L314.741 41.3579H308.581Z" fill="#274C5B"/>
<path d="M1.85059 41.9263H19.2909H36.7312" stroke="#7EB693" stroke-width="2" stroke-miterlimit="10"/>
<path d="M5.79102 48.3579L19.291 48.3579L32.791 48.3579" stroke="#7EB693" stroke-width="2" stroke-miterlimit="10"/>
<path d="M18.791 1.35791L18.791 8.35791L18.791 15.3579" stroke="#7EB693" stroke-width="2" stroke-miterlimit="10"/>
<path d="M18.8657 14.6421V41.0737" stroke="#7EB693" stroke-width="2" stroke-miterlimit="10"/>
<path d="M29.9254 4.41064L18.8657 15.4949" stroke="#7EB693" stroke-width="2" stroke-miterlimit="10"/>
<path d="M34.1792 8.67383L18.8657 24.0212" stroke="#7EB693" stroke-width="2" stroke-miterlimit="10"/>
<path d="M36.7314 15.4946L18.8657 32.5473" stroke="#7EB693" stroke-width="2" stroke-miterlimit="10"/>
<path d="M37.5821 23.1685L18.8657 41.9264" stroke="#7EB693" stroke-width="2" stroke-miterlimit="10"/>
<path d="M37.582 31.6948L27.373 41.9264" stroke="#7EB693" stroke-width="2" stroke-miterlimit="10"/>
<path d="M1 31.6948L11.209 41.9264" stroke="#7EB693" stroke-width="2" stroke-miterlimit="10"/>
<path d="M8.65674 4.41064L18.8657 15.4949" stroke="#7EB693" stroke-width="2" stroke-miterlimit="10"/>
<path d="M4.40283 8.67383L18.8655 24.0212" stroke="#7EB693" stroke-width="2" stroke-miterlimit="10"/>
<path d="M1.85059 14.6421L18.8655 32.5474" stroke="#7EB693" stroke-width="2" stroke-miterlimit="10"/>
<path d="M1 22.3159L18.8657 41.0738" stroke="#7EB693" stroke-width="2" stroke-miterlimit="10"/>
<path d="M19.291 54.7158C9.19019 54.7158 1 46.2635 1 35.8351V19.8806C1 9.45419 9.19019 1 19.291 1C29.3937 1 37.5821 9.45419 37.5821 19.8806V35.8351C37.5839 46.2635 29.3937 54.7158 19.291 54.7158Z" stroke="#7EB693" stroke-width="2" stroke-miterlimit="10"/>
</svg>
